{
  "accessors": [
    {
      "bufferView": 2,
      "componentType": 5126,
      "count": 1839,
      "max": [1.0, 3.123591899871826, 1.0044952630996704],
      "min": [-1.0, -1.0, -1.0],
      "type": "VEC3"
    },
    {
      "bufferView": 2,
      "byteOffset": 22068,
      "componentType": 5126,
      "count": 1839,
      "max": [0.9999935626983643, 0.9999854564666748, 0.9999935626983643],
      "min": [-0.9999983310699463, -0.9999854564666748, -0.9999935626983643],
      "type": "VEC3"
    },
    {
      "bufferView": 1,
      "componentType": 5126,
      "count": 1839,
      "max": [0.875, 1.0],
      "min": [0.125, 0.0],
      "type": "VEC2"
    },
    {
      "bufferView": 0,
      "componentType": 5125,
      "count": 8706,
      "type": "SCALAR"
    },
    {
      "bufferView": 2,
      "byteOffset": 44136,
      "componentType": 5126,
      "count": 244,
      "max": [0.08405143022537231, 0.009790420532226563, 0.08405143022537231],
      "min": [-0.37881606817245483, 0.0, -0.08405143022537231],
      "type": "VEC3"
    },
    {
      "bufferView": 2,
      "byteOffset": 47064,
      "componentType": 5126,
      "count": 244,
      "max": [0.9996458292007446, 0.9995956420898438, 0.9986385703086853],
      "min": [-0.9996458292007446, -0.9995956420898438, -0.9986385703086853],
      "type": "VEC3"
    },
    {
      "bufferView": 1,
      "byteOffset": 14712,
      "componentType": 5126,
      "count": 244,
      "max": [0.0, 0.0],
      "min": [0.0, 0.0],
      "type": "VEC2"
    },
    {
      "bufferView": 0,
      "byteOffset": 34824,
      "componentType": 5125,
      "count": 948,
      "type": "SCALAR"
    },
    {
      "bufferView": 2,
      "byteOffset": 49992,
      "componentType": 5126,
      "count": 244,
      "max": [0.08405143022537231, 0.009790420532226563, 0.08405143022537231],
      "min": [-0.37881606817245483, 0.0, -0.08405143022537231],
      "type": "VEC3"
    },
    {
      "bufferView": 2,
      "byteOffset": 52920,
      "componentType": 5126,
      "count": 244,
      "max": [0.9996458292007446, 0.9995956420898438, 0.9986385703086853],
      "min": [-0.9996458292007446, -0.9995956420898438, -0.9986385703086853],
      "type": "VEC3"
    },
    {
      "bufferView": 1,
      "byteOffset": 16664,
      "componentType": 5126,
      "count": 244,
      "max": [0.0, 0.0],
      "min": [0.0, 0.0],
      "type": "VEC2"
    },
    {
      "bufferView": 0,
      "byteOffset": 38616,
      "componentType": 5125,
      "count": 948,
      "type": "SCALAR"
    },
    {
      "bufferView": 2,
      "byteOffset": 55848,
      "componentType": 5126,
      "count": 144,
      "max": [1.0, 1.0, 1.0],
      "min": [-1.0, -5.160284996032715, -1.0],
      "type": "VEC3"
    },
    {
      "bufferView": 2,
      "byteOffset": 57576,
      "componentType": 5126,
      "count": 144,
      "max": [1.0, 1.0, 1.0],
      "min": [-1.0, -1.0, -1.0],
      "type": "VEC3"
    },
    {
      "bufferView": 1,
      "byteOffset": 18616,
      "componentType": 5126,
      "count": 144,
      "max": [0.875, 1.0],
      "min": [0.125, 0.0],
      "type": "VEC2"
    },
    {
      "bufferView": 0,
      "byteOffset": 42408,
      "componentType": 5125,
      "count": 216,
      "type": "SCALAR"
    },
    {
      "bufferView": 2,
      "byteOffset": 59304,
      "componentType": 5126,
      "count": 2588,
      "max": [-0.009737557731568813, 1.0753343105316162, 0.05403030291199684],
      "min": [-0.20331929624080658, -1.0752564668655396, -0.05401424318552017],
      "type": "VEC3"
    },
    {
      "bufferView": 2,
      "byteOffset": 90360,
      "componentType": 5126,
      "count": 2588,
      "max": [0.9999850988388062, 0.9999998807907104, 0.9999996423721313],
      "min": [-0.9999978542327881, -0.9999988079071045, -1.0],
      "type": "VEC3"
    },
    {
      "bufferView": 1,
      "byteOffset": 19768,
      "componentType": 5126,
      "count": 2588,
      "max": [0.8750000596046448, 1.0],
      "min": [0.49999991059303284, -0.00793450977653265],
      "type": "VEC2"
    },
    {
      "bufferView": 0,
      "byteOffset": 43272,
      "componentType": 5125,
      "count": 11520,
      "type": "SCALAR"
    },
    {
      "bufferView": 2,
      "byteOffset": 121416,
      "componentType": 5126,
      "count": 768,
      "max": [0.6340509653091431, -0.9529304504394531, 0.8763543367385864],
      "min": [-0.8888376951217651, -1.047060489654541, -0.876354455947876],
      "type": "VEC3"
    },
    {
      "bufferView": 2,
      "byteOffset": 130632,
      "componentType": 5126,
      "count": 768,
      "max": [0.9951850771903992, 1.0, 0.9951874017715454],
      "min": [-0.9951850771903992, -1.0, -0.9951850771903992],
      "type": "VEC3"
    },
    {
      "bufferView": 1,
      "byteOffset": 40472,
      "componentType": 5126,
      "count": 768,
      "max": [1.0, 1.0],
      "min": [0.0, 0.01000000536441803],
      "type": "VEC2"
    },
    {
      "bufferView": 0,
      "byteOffset": 89352,
      "componentType": 5125,
      "count": 1488,
      "type": "SCALAR"
    }
  ],
  "asset": {
    "extras": {
      "author": "rivego (https://sketchfab.com/rivego)",
      "license": "CC-BY-4.0 (http://creativecommons.org/licenses/by/4.0/)",
      "source": "https://sketchfab.com/3d-models/refrigerador-1b48a3d913474e6890b8b8163bb5407c",
      "title": "Refrigerador"
    },
    "generator": "Sketchfab-12.66.0",
    "version": "2.0"
  },
  "bufferViews": [
    {
      "buffer": 0,
      "byteLength": 95304,
      "name": "floatBufferViews",
      "target": 34963
    },
    {
      "buffer": 0,
      "byteLength": 46616,
      "byteOffset": 95304,
      "byteStride": 8,
      "name": "floatBufferViews",
      "target": 34962
    },
    {
      "buffer": 0,
      "byteLength": 139848,
      "byteOffset": 141920,
      "byteStride": 12,
      "name": "floatBufferViews",
      "target": 34962
    }
  ],
  "buffers": [
    {
      "byteLength": 281768,
      "uri": "scene.bin"
    }
  ],
  "materials": [
    {
      "doubleSided": true,
      "name": "material_0",
      "pbrMetallicRoughness": {
        "baseColorFactor": [
          0.03709710925778361, 0.03709710925778361, 0.03709710925778361, 1.0
        ],
        "metallicFactor": 0.0,
        "roughnessFactor": 0.6
      }
    },
    {
      "doubleSided": true,
      "name": "Refri",
      "pbrMetallicRoughness": {
        "metallicFactor": 0.30659298780487804,
        "roughnessFactor": 0.0
      }
    },
    {
      "doubleSided": true,
      "name": "hule",
      "pbrMetallicRoughness": {
        "baseColorFactor": [
          0.051766289830066425, 0.04001686776433242, 0.04001686776433242, 1.0
        ],
        "metallicFactor": 0.2578125,
        "roughnessFactor": 0.5
      }
    },
    {
      "doubleSided": true,
      "name": "agarradera",
      "pbrMetallicRoughness": {
        "baseColorFactor": [0.8, 0.8, 0.8, 1.0],
        "roughnessFactor": 0.0626905487804878
      }
    }
  ],
  "meshes": [
    {
      "name": "Object_0",
      "primitives": [
        {
          "attributes": {
            "NORMAL": 1,
            "POSITION": 0,
            "TEXCOORD_0": 2
          },
          "indices": 3,
          "material": 1,
          "mode": 4
        }
      ]
    },
    {
      "name": "Object_1",
      "primitives": [
        {
          "attributes": {
            "NORMAL": 5,
            "POSITION": 4,
            "TEXCOORD_0": 6
          },
          "indices": 7,
          "material": 0,
          "mode": 4
        }
      ]
    },
    {
      "name": "Object_2",
      "primitives": [
        {
          "attributes": {
            "NORMAL": 9,
            "POSITION": 8,
            "TEXCOORD_0": 10
          },
          "indices": 11,
          "material": 1,
          "mode": 4
        }
      ]
    },
    {
      "name": "Object_3",
      "primitives": [
        {
          "attributes": {
            "NORMAL": 13,
            "POSITION": 12,
            "TEXCOORD_0": 14
          },
          "indices": 15,
          "material": 2,
          "mode": 4
        }
      ]
    },
    {
      "name": "Object_4",
      "primitives": [
        {
          "attributes": {
            "NORMAL": 17,
            "POSITION": 16,
            "TEXCOORD_0": 18
          },
          "indices": 19,
          "material": 3,
          "mode": 4
        }
      ]
    },
    {
      "name": "Object_5",
      "primitives": [
        {
          "attributes": {
            "NORMAL": 21,
            "POSITION": 20,
            "TEXCOORD_0": 22
          },
          "indices": 23,
          "material": 0,
          "mode": 4
        }
      ]
    }
  ],
  "nodes": [
    {
      "children": [1],
      "matrix": [
        0.41842374205589294, 0.0, 0.0, 0.0, 0.0, 9.290873449605396e-17,
        -0.41842374205589294, 0.0, 0.0, 0.41842374205589294,
        9.290873449605396e-17, 0.0, 0.0, 0.0, 0.0, 1.0
      ],
      "name": "Sketchfab_model"
    },
    {
      "children": [2],
      "name": "root"
    },
    {
      "children": [3],
      "matrix": [
        1.0, 0.0, 0.0, 0.0, 0.0, 2.220446049250313e-16, 1.0, 0.0, 0.0, -1.0,
        2.220446049250313e-16, 0.0, 0.0, 0.0, 0.0, 1.0
      ],
      "name": "GLTF_SceneRootNode"
    },
    {
      "children": [4, 5, 7, 9, 11, 13],
      "name": "Cube_5"
    },
    {
      "mesh": 0,
      "name": "Object_4"
    },
    {
      "children": [6],
      "matrix": [
        1.0, 0.0, 0.0, 0.0, 0.0, 1.0, 0.0, 0.0, 0.0, 0.0, 1.0, 0.0,
        0.8760930895805359, 3.1229424476623535, -0.8730363845825195, 1.0
      ],
      "name": "Circle_0"
    },
    {
      "mesh": 1,
      "name": "Object_6"
    },
    {
      "children": [8],
      "matrix": [
        1.0, 0.0, 0.0, 0.0, 0.0, 1.0, 0.0, 0.0, 0.0, 0.0, 1.0, 0.0,
        0.8760930895805359, 1.6272904872894287, -0.8730363845825195, 1.0
      ],
      "name": "Circle.001_1"
    },
    {
      "mesh": 2,
      "name": "Object_8"
    },
    {
      "children": [10],
      "matrix": [
        0.08800496160984039, 0.0, 0.0, 0.0, 0.0, 0.6444439888000488, 0.0, 0.0,
        0.0, 0.0, 0.9350936412811279, 0.0, 0.7624228000640869,
        2.415177345275879, 0.0, 1.0
      ],
      "name": "Cube.003_2"
    },
    {
      "mesh": 3,
      "name": "Object_10"
    },
    {
      "children": [12],
      "matrix": [
        1.0, 0.0, 0.0, 0.0, 0.0, 1.0, 0.0, 0.0, 0.0, 0.0, 1.0, 0.0,
        1.1417486667633057, 1.6618731021881104, 0.7825279831886292, 1.0
      ],
      "name": "Cube.004_3"
    },
    {
      "mesh": 4,
      "name": "Object_12"
    },
    {
      "children": [14],
      "name": "Cylinder_4"
    },
    {
      "mesh": 5,
      "name": "Object_14"
    }
  ],
  "scene": 0,
  "scenes": [
    {
      "name": "Sketchfab_Scene",
      "nodes": [0]
    }
  ]
}
